<?xml version="1.0" encoding="UTF-8" standalone="no"?>
<!DOCTYPE svg PUBLIC "-//W3C//DTD SVG 1.1//EN" "http://www.w3.org/Graphics/SVG/1.1/DTD/svg11.dtd">
<svg width="100%" height="100%" viewBox="0 0 500 500" version="1.1" xmlns="http://www.w3.org/2000/svg" xmlns:xlink="http://www.w3.org/1999/xlink" xml:space="preserve" xmlns:serif="http://www.serif.com/" style="fill-rule:evenodd;clip-rule:evenodd;stroke-linejoin:round;stroke-miterlimit:2;">
    <g transform="matrix(1,0,0,1,-2704.79,-284.744)">
        <g>
            <g transform="matrix(1.12107,0,0,1.07746,1192.26,-29.518)">
                <rect fill='white' x="1349.18" y="291.668" width="446.003" height="464.053" style="fill:white;fill-opacity:0;"/>
            </g>
            <g transform="matrix(1.14182,0,0,1.14182,-427.22,-69.8643)">
                <path fill='white' d="M3180.9,700L2743,700L2743,408.125L2958.5,408.125L3129,331L3129,408.125L3180.9,408.125L3180.9,700ZM3129,422.625L3129,622L2990.2,685.5L3166.4,685.5L3166.4,422.625L3129,422.625ZM2972.5,416.473L2972.5,677.5L3115,611.744L3115,349.5L2972.5,416.473ZM2992.5,608.473L3095,560.5L3095,576.744L2992.5,623.5L2992.5,608.473ZM2992.5,447.473L3095,399.5L3095,415.744L2992.5,462.5L2992.5,447.473ZM2992.5,488.473L3095,440.5L3095,456.744L2992.5,503.5L2992.5,488.473ZM2992.5,528.473L3095,480.5L3095,496.744L2992.5,543.5L2992.5,528.473ZM2992.5,568.473L3095,520.5L3095,536.744L2992.5,583.5L2992.5,568.473ZM2852.49,501.375C2855.54,501.375 2858.15,500.284 2860.33,498.102C2862.51,495.92 2863.6,493.309 2863.6,490.267C2863.6,487.226 2862.51,484.648 2860.33,482.532C2858.15,480.416 2855.54,479.358 2852.49,479.358C2849.45,479.358 2846.84,480.416 2844.66,482.532C2842.48,484.648 2841.39,487.226 2841.39,490.267C2841.39,493.309 2842.48,495.92 2844.66,498.102C2846.84,500.284 2849.45,501.375 2852.49,501.375ZM2862.81,553.341C2862.81,547.655 2862.88,542.101 2863.01,536.68C2863.14,529.54 2863.27,525.44 2863.4,524.383C2863.4,523.854 2863.47,523.06 2863.6,522.002C2863.74,520.945 2863.8,520.151 2863.8,519.622C2863.8,514.465 2861.88,511.887 2858.05,511.887C2856.99,511.887 2855.37,512.052 2853.19,512.383C2851.01,512.713 2849.39,512.879 2848.33,512.879C2847.14,512.879 2844.43,512.614 2840.2,512.085C2839.14,511.953 2837.36,511.887 2834.84,511.887C2829.02,511.887 2826.12,514.135 2826.12,518.631C2826.12,522.862 2828.49,524.978 2833.26,524.978C2834.18,524.978 2835.6,524.746 2837.52,524.283C2839.44,523.821 2840.93,523.589 2841.98,523.589C2845.29,523.589 2847.27,527.754 2847.93,536.085L2847.93,586.861C2847.27,595.324 2845.36,599.555 2842.18,599.555C2841.12,599.555 2839.57,599.357 2837.52,598.96C2835.47,598.563 2833.92,598.365 2832.86,598.365C2828.36,598.365 2826.12,600.547 2826.12,604.91C2826.12,609.406 2828.76,611.654 2834.05,611.654C2835.77,611.654 2839.21,611.323 2844.36,610.662C2848.59,610.133 2852.43,609.869 2855.87,609.869C2857.98,609.869 2861.19,610.166 2865.49,610.761C2869.78,611.356 2872.99,611.654 2875.11,611.654C2877.62,611.654 2879.7,610.993 2881.35,609.671C2883.01,608.348 2883.83,606.761 2883.83,604.91C2883.83,600.547 2881.32,598.365 2876.3,598.365C2874.97,598.365 2873.98,598.497 2873.32,598.762C2870.68,599.423 2869.02,599.753 2868.36,599.753C2865.45,599.753 2863.67,596.778 2863.01,590.828C2862.88,589.638 2862.81,585.737 2862.81,579.126L2862.81,553.341Z"/>
            </g>
            <g transform="matrix(0.713949,0,0,1.06815,893.025,-38.5867)">
                <rect fill='white' x="3155" y="399.5" width="83" height="15.5"/>
            </g>
            <g transform="matrix(0.713949,0,0,1.06815,893.025,-38.5867)">
                <rect fill='white' x="3155" y="399.5" width="83" height="15.5"/>
            </g>
        </g>
    </g>
</svg>
