<?xml version="1.0" encoding="UTF-8" standalone="no"?>
<!DOCTYPE svg PUBLIC "-//W3C//DTD SVG 1.1//EN" "http://www.w3.org/Graphics/SVG/1.1/DTD/svg11.dtd">
<svg width="100%" height="100%" viewBox="0 0 353 318" version="1.1" xmlns="http://www.w3.org/2000/svg" xmlns:xlink="http://www.w3.org/1999/xlink" xml:space="preserve" xmlns:serif="http://www.serif.com/" style="fill-rule:evenodd;clip-rule:evenodd;stroke-linejoin:round;stroke-miterlimit:2;">
    <g transform="matrix(1,0,0,1,-457.65,-294.861)">
        <g>
            <g transform="matrix(1.27295,0,0,1.27295,-122.816,-497.571)">
                <path d="M594.5,665.321C623.658,613.651 681.974,613.651 711.132,639.486C740.291,665.321 740.291,716.991 711.132,768.66C690.721,807.413 638.237,846.165 594.5,872C550.763,846.165 498.279,807.413 477.868,768.66C448.711,716.991 448.711,665.321 477.868,639.486C507.026,613.651 565.342,613.651 594.5,665.321Z" style="fill:rgb(28,142,69);"/>
            </g>
            <g transform="matrix(0.369685,0,0,0.369685,345.241,265.964)">
                <g transform="matrix(1.12107,0,0,1.07746,-981.561,-29.518)">
                    <rect x="1349.18" y="291.668" width="446.003" height="464.053" style="fill:white;fill-opacity:0;"/>
                </g>
                <g transform="matrix(1.13919,0,0,1.13919,-109.254,-101.644)">
                    <path d="M789.976,339.179L898.611,339.179L897.991,453.651L942.039,453.651L842.068,568.081L739.104,453.651L789.395,453.651L789.976,339.179Z" style="fill:white;"/>
                    <g transform="matrix(1,0,0,0.955946,0,22.9653)">
                        <rect x="562" y="544" width="71" height="158.896" style="fill:white;"/>
                    </g>
                    <path d="M649,557L648,676L659,676C659,676 704.998,705.767 731,719C756.834,732.147 798.236,735.039 827,721C855,707.333 954.761,659.144 984,645.407C1016.28,630.244 998.31,579.452 964,589.173C947.722,593.785 893,610 893,610C900.471,633 883.79,675 850,675C828.244,675 780.969,677 780.969,677L780.969,660C780.969,660 833.733,659.997 850,660C885.505,660.006 885.505,590 850,590C834.886,590 803.667,590.167 790,589C782.426,588.353 774.835,586.325 768,583C760.833,579.514 754.899,572.448 747,568.081C737.328,562.734 720.756,556.717 707,557C690.576,557.337 649,557 649,557Z" style="fill:white;"/>
                </g>
            </g>
        </g>
    </g>
</svg>
