<?xml version="1.0" encoding="UTF-8" standalone="no"?>
<!DOCTYPE svg PUBLIC "-//W3C//DTD SVG 1.1//EN" "http://www.w3.org/Graphics/SVG/1.1/DTD/svg11.dtd">
<svg width="100%" height="100%" viewBox="0 0 320 320" version="1.1" xmlns="http://www.w3.org/2000/svg" xmlns:xlink="http://www.w3.org/1999/xlink" xml:space="preserve" xmlns:serif="http://www.serif.com/" style="fill-rule:evenodd;clip-rule:evenodd;stroke-linejoin:round;stroke-miterlimit:2;">
    <g transform="matrix(1,0,0,1,-949,-293.651)">
        <g transform="matrix(1,0,0,1,-1162,-16.5)">
            <g transform="matrix(1,0,0,1,1058.2,6.70059)">
                <circle cx="1212.8" cy="463.451" r="99.549" style="fill:white;"/>
            </g>
            <g transform="matrix(1.78205,0,0,1.78205,-1701.44,-417.785)">
                <path d="M2234.39,498.478L2234.39,519.592C2234.39,520.547 2234.42,521.201 2234.49,521.555C2234.7,523.677 2235.02,524.738 2235.45,524.738C2235.38,524.738 2235.55,524.702 2235.98,524.632C2236.4,524.561 2236.93,524.455 2237.57,524.313L2237.46,524.419C2237.68,524.349 2237.94,524.278 2238.26,524.207C2238.58,524.137 2238.99,524.101 2239.48,524.101C2243.16,524.101 2245,525.657 2245,528.77C2245,530.184 2244.41,531.351 2243.25,532.271C2242.08,533.19 2240.61,533.65 2238.84,533.65C2238.28,533.65 2237.57,533.615 2236.72,533.544C2235.87,533.473 2234.88,533.367 2233.75,533.226C2232.69,533.084 2231.77,532.961 2230.99,532.854C2230.21,532.748 2229.58,532.695 2229.08,532.695C2228.3,532.695 2227.44,532.731 2226.48,532.801C2225.53,532.872 2224.52,532.978 2223.46,533.12C2222.19,533.261 2221.11,533.385 2220.22,533.491C2219.34,533.597 2218.61,533.65 2218.05,533.65C2214.23,533.65 2212.32,532.023 2212.32,528.77C2212.32,525.657 2214.05,524.101 2217.52,524.101C2217.66,524.101 2218.07,524.137 2218.74,524.207C2219.41,524.278 2219.96,524.349 2220.38,524.419C2220.88,524.561 2221.27,524.632 2221.55,524.632L2222.19,524.632C2222.75,524.632 2223.14,522.934 2223.35,519.539L2223.35,493.969C2223.14,490.644 2222.72,488.982 2222.08,488.982C2221.94,488.982 2221.69,489.018 2221.34,489.088C2220.98,489.159 2220.56,489.265 2220.06,489.407C2219.71,489.548 2219.3,489.637 2218.84,489.672C2218.38,489.707 2218.01,489.725 2217.73,489.725C2214.12,489.725 2212.32,488.169 2212.32,485.057C2212.32,481.874 2214.37,480.282 2218.47,480.282L2220.38,480.282C2220.88,480.282 2221.23,480.317 2221.44,480.388C2222.43,480.53 2223.26,480.636 2223.94,480.706C2224.61,480.777 2225.05,480.813 2225.26,480.813C2225.4,480.813 2225.7,480.795 2226.16,480.76C2226.62,480.724 2227.07,480.671 2227.49,480.6L2230.25,480.282C2233.29,480.282 2234.81,482.05 2234.81,485.587L2234.81,487.072C2234.74,487.355 2234.7,487.585 2234.7,487.762L2234.7,488.133C2234.64,488.346 2234.6,489.336 2234.6,491.104C2234.6,491.599 2234.58,492.112 2234.55,492.643C2234.51,493.173 2234.49,493.721 2234.49,494.287C2234.42,495.702 2234.39,497.099 2234.39,498.478ZM2227.38,472.124C2225.33,472.124 2223.6,471.452 2222.19,470.108C2220.77,468.764 2220.06,467.102 2220.06,465.122C2220.06,463.141 2220.77,461.497 2222.19,460.188C2223.6,458.879 2225.33,458.225 2227.38,458.225C2229.44,458.225 2231.19,458.879 2232.64,460.188C2234.09,461.497 2234.81,463.141 2234.81,465.122C2234.81,467.102 2234.09,468.764 2232.64,470.108C2231.19,471.452 2229.44,472.124 2227.38,472.124Z" style="fill:rgb(34,127,175);fill-rule:nonzero;"/>
            </g>
            <g transform="matrix(1.11498,0,0,1.11498,-843.704,-1050.13)">
                <path d="M2814.28,1221.51L2818.76,1254.54C2830.76,1257.32 2842.23,1262.07 2852.69,1268.6L2879.21,1248.41C2890.38,1256.73 2900.28,1266.62 2908.59,1277.79L2888.41,1304.31C2894.93,1314.77 2899.68,1326.24 2902.46,1338.24L2935.49,1342.72C2937.5,1356.5 2937.5,1370.5 2935.49,1384.28L2902.46,1388.76C2899.68,1400.76 2894.93,1412.23 2888.41,1422.69L2908.59,1449.21C2900.28,1460.38 2890.38,1470.28 2879.21,1478.59L2852.69,1458.4C2842.23,1464.93 2830.76,1469.68 2818.76,1472.46L2814.28,1505.49C2800.5,1507.5 2786.5,1507.5 2772.72,1505.49L2768.24,1472.46C2756.24,1469.68 2744.77,1464.93 2734.31,1458.4L2707.79,1478.59C2696.62,1470.28 2686.72,1460.38 2678.41,1449.21L2698.6,1422.69C2692.07,1412.23 2687.32,1400.76 2684.54,1388.76L2651.51,1384.28C2649.5,1370.5 2649.5,1356.5 2651.51,1342.72L2684.54,1338.24C2687.32,1326.24 2692.07,1314.77 2698.6,1304.31L2678.41,1277.79C2686.72,1266.62 2696.62,1256.73 2707.79,1248.41L2734.31,1268.6C2744.77,1262.07 2756.24,1257.32 2768.24,1254.54L2772.72,1221.51C2786.5,1219.5 2800.5,1219.5 2814.28,1221.51ZM2793.5,1283.01C2837.93,1283.01 2873.99,1319.07 2873.99,1363.5C2873.99,1407.93 2837.93,1444 2793.5,1444C2749.07,1444 2713.01,1407.93 2713.01,1363.5C2713.01,1319.07 2749.07,1283.01 2793.5,1283.01Z" style="fill:rgb(34,127,175);"/>
            </g>
        </g>
    </g>
</svg>
