<?xml version="1.0" encoding="UTF-8" standalone="no"?>
<!DOCTYPE svg PUBLIC "-//W3C//DTD SVG 1.1//EN" "http://www.w3.org/Graphics/SVG/1.1/DTD/svg11.dtd">
<svg width="100%" height="100%" viewBox="0 0 500 500" version="1.1" xmlns="http://www.w3.org/2000/svg" xmlns:xlink="http://www.w3.org/1999/xlink" xml:space="preserve" xmlns:serif="http://www.serif.com/" style="fill-rule:evenodd;clip-rule:evenodd;stroke-linejoin:round;stroke-miterlimit:2;">
    <g transform="matrix(1,0,0,1,-1618.81,-284.744)">
        <g>
            <g transform="matrix(1.12107,0,0,1.07746,106.284,-29.518)">
                <rect x="1349.18" y="291.668" width="446.003" height="464.053" fill="white" fill-opacity="0"/>
            </g>
            <g transform="matrix(0.733004,0,0,0.733004,450.681,252.304)">
                <g transform="matrix(14.1097,0,0,14.1097,-7660.69,-2355.73)">
                    <path fill="white" d="M666.377,191.418C666.362,191.355 666.347,191.293 666.332,191.23L662.287,190.65C662.035,188.926 662.035,187.174 662.287,185.45L666.332,184.87C666.683,183.357 667.281,181.914 668.102,180.596L665.652,177.326C666.693,175.928 667.932,174.69 669.329,173.649L672.6,176.099C673.917,175.277 675.361,174.679 676.873,174.329L677.454,170.284C679.178,170.031 680.929,170.031 682.653,170.284L683.234,174.329C684.746,174.679 686.19,175.277 687.507,176.099L690.778,173.649C692.175,174.69 693.414,175.928 694.454,177.326L692.005,180.596C692.826,181.914 693.424,183.357 693.775,184.87L697.82,185.45C698.072,187.174 698.072,188.926 697.82,190.65L693.775,191.23C693.76,191.296 693.744,191.362 693.727,191.428L693.905,191.355C693.843,192.445 693.125,194.047 692.223,195.794L694.454,198.774C693.414,200.172 692.175,201.41 690.778,202.451L689.312,201.353C689.251,201.483 689.192,201.612 689.135,201.739C688.399,203.381 688.104,205.547 688.104,207.036C688.104,208.989 686.472,210.525 685.311,210.525C683.108,210.525 677.653,210.516 675.349,210.516C673.045,210.516 672.018,209.035 672.018,206.732C672.018,205.465 671.537,203.859 671.184,202.447C671.091,202.076 670.971,201.702 670.829,201.328L669.329,202.451C667.932,201.41 666.693,200.172 665.652,198.774L667.901,195.771C667.06,194.249 666.361,192.762 666.219,191.355L666.377,191.418ZM680.053,181.344C676.352,181.344 673.347,184.349 673.347,188.05C673.347,191.751 676.352,194.756 680.053,194.756C683.755,194.756 686.76,191.751 686.76,188.05C686.76,184.349 683.755,181.344 680.053,181.344Z" />
                </g>
                <g transform="matrix(11.3464,0,0,11.3464,-5946.35,-1002.41)">
                    <path fill="white" d="M701.122,150.295C701.122,150.295 700.236,152.364 698.249,152.364C696.602,152.364 691.98,152.346 690.828,152.346C689.676,152.346 688.481,151.394 688.047,150.295"/>
                </g>
                <g transform="matrix(1,0,0,1,0,2)">
                    <rect fill="white" x="1860.52" y="665.531" width="148.354" height="20.645"/>
                </g>
                <g transform="matrix(1,0,0,1,0,-34.6593)">
                    <rect fill="white" x="1860.52" y="665.531" width="148.354" height="20.645"/>
                </g>
            </g>
        </g>
    </g>
</svg>
