<?xml version="1.0" encoding="UTF-8" standalone="no"?>
<!DOCTYPE svg PUBLIC "-//W3C//DTD SVG 1.1//EN" "http://www.w3.org/Graphics/SVG/1.1/DTD/svg11.dtd">
<svg width="100%" height="100%" viewBox="0 0 155 207" version="1.1" xmlns="http://www.w3.org/2000/svg" xmlns:xlink="http://www.w3.org/1999/xlink" xml:space="preserve" xmlns:serif="http://www.serif.com/" style="fill-rule:evenodd;clip-rule:evenodd;stroke-linejoin:round;stroke-miterlimit:2;">
    <g transform="matrix(1,0,0,1,-1670.71,-90.4281)">
        <g transform="matrix(1.71634,0,0,1.99669,0,0)">
            <g transform="matrix(1,0,0,1,267.604,0)">
                <g transform="matrix(0.57147,0,-5.44616e-47,0.491232,227.386,-205.791)">
                    <circle cx="914.484" cy="542.467" r="26.247" style="fill:rgb(255,196,0);"/>
                </g>
                <g transform="matrix(0.57147,0,-5.44616e-47,0.491232,227.386,-205.791)">
                    <circle cx="914.484" cy="542.467" r="31.345" style="fill:rgb(246,166,75);"/>
                </g>
                <g transform="matrix(-1.02444,-9.21478e-16,-1.35786e-15,1.11825,1265.48,-629.504)">
                    <path d="M517.226,693.539L503.326,693.749L503.238,648.24C502.967,644.884 501.752,639.428 498.805,637.293L514.107,635.868C514.969,637.081 515.804,638.735 516.604,640.989C516.681,638.613 520.187,637.416 524.17,637.16L543.33,637.404L543.478,648.336L524.711,648.285C519.679,649.137 517.236,652.021 517.107,656.721L517.226,693.539Z" style="fill:rgb(231,231,231);"/>
                </g>
                <g transform="matrix(-1.02444,-9.21478e-16,-1.35786e-15,1.11825,1265.48,-629.504)">
                    <path d="M517.556,636.321C517.236,635.744 516.913,635.231 516.589,634.775C516.027,633.984 514.916,633.538 513.774,633.645L498.471,635.069C497.367,635.172 496.441,635.771 496.099,636.603C495.757,637.436 496.062,638.349 496.879,638.941C497.761,639.58 498.362,640.647 498.867,641.82C499.786,643.958 500.239,646.469 500.394,648.314L500.483,693.752C500.484,694.353 500.792,694.928 501.337,695.348C501.882,695.769 502.618,695.999 503.381,695.987L517.281,695.778C518.833,695.755 520.074,694.756 520.07,693.533C520.07,693.533 519.951,656.743 519.951,656.731C520.053,653.398 521.556,651.211 525.031,650.526L543.469,650.575C544.23,650.577 544.96,650.339 545.496,649.913C546.033,649.488 546.33,648.911 546.322,648.312L546.174,637.38C546.157,636.167 544.917,635.185 543.376,635.165L524.216,634.921C524.124,634.919 524.031,634.922 523.939,634.928C521.524,635.083 519.27,635.564 517.556,636.321Z" style="fill:rgb(171,171,171);"/>
                </g>
                <g transform="matrix(1.02444,-9.21478e-16,1.35786e-15,1.11825,236.15,-629.504)">
                    <path d="M517.226,693.539L503.326,693.749L503.238,648.24C502.967,644.884 501.752,639.428 498.805,637.293L514.107,635.868C514.969,637.081 515.804,638.735 516.604,640.989C516.681,638.613 520.187,637.416 524.17,637.16L543.33,637.404L543.478,648.336L524.711,648.285C519.679,649.137 517.236,652.021 517.107,656.721L517.226,693.539Z" style="fill:rgb(36,102,183);"/>
                </g>
                <g transform="matrix(1.02444,-9.21478e-16,1.35786e-15,1.11825,236.15,-629.504)">
                    <path d="M517.556,636.321C519.27,635.564 521.524,635.083 523.939,634.928C524.031,634.922 524.124,634.919 524.216,634.921L543.376,635.165C544.917,635.185 546.157,636.167 546.174,637.38L546.322,648.312C546.33,648.911 546.033,649.488 545.496,649.913C544.96,650.339 544.23,650.577 543.469,650.575C543.469,650.575 525.031,650.526 525.029,650.526C521.551,651.212 520.05,653.403 519.951,656.743L520.07,693.533C520.074,694.756 518.833,695.755 517.281,695.778L503.381,695.987C502.618,695.999 501.882,695.769 501.337,695.348C500.792,694.928 500.484,694.353 500.483,693.752C500.483,693.752 500.394,648.314 500.394,648.31C500.238,646.466 499.786,643.957 498.867,641.82C498.362,640.647 497.761,639.58 496.879,638.941C496.062,638.349 495.757,637.436 496.099,636.603C496.441,635.771 497.367,635.172 498.471,635.069L513.774,633.645C514.916,633.538 516.027,633.984 516.589,634.775C516.913,635.231 517.236,635.744 517.556,636.321Z" style="fill:rgb(12,46,84);"/>
                </g>
            </g>
        </g>
    </g>
</svg>
