<?xml version="1.0" encoding="UTF-8" standalone="no"?>
<!DOCTYPE svg PUBLIC "-//W3C//DTD SVG 1.1//EN" "http://www.w3.org/Graphics/SVG/1.1/DTD/svg11.dtd">
<svg width="100%" height="100%" viewBox="0 0 389 110" version="1.1" xmlns="http://www.w3.org/2000/svg" xmlns:xlink="http://www.w3.org/1999/xlink" xml:space="preserve" xmlns:serif="http://www.serif.com/" style="fill-rule:evenodd;clip-rule:evenodd;stroke-linejoin:round;stroke-miterlimit:2;">
    <g transform="matrix(1,0,0,1,-4201.77,-601.377)">
        <g id="Artboard2" transform="matrix(1,0,0,1,-0.53258,0)">
            <rect x="2521.53" y="0" width="2471.53" height="1797.02" style="fill:none;"/>
            <g transform="matrix(1.71634,0,0,1.99669,3506.42,-612.743)">
                <g transform="matrix(0.424695,0,0,0.424695,105.693,588.833)">
                    <g transform="matrix(0.57147,0,-5.44616e-47,0.491232,227.386,-205.791)">
                        <circle cx="914.484" cy="542.467" r="26.247" style="fill:rgb(255,196,0);"/>
                        <path d="M914.484,511.122C931.784,511.122 945.829,525.168 945.829,542.467C945.829,559.767 931.784,573.812 914.484,573.812C897.185,573.812 883.14,559.767 883.14,542.467C883.14,525.168 897.185,511.122 914.484,511.122ZM914.484,516.22C899.998,516.22 888.237,527.981 888.237,542.467C888.237,556.953 899.998,568.714 914.484,568.714C928.97,568.714 940.731,556.953 940.731,542.467C940.731,527.981 928.97,516.22 914.484,516.22Z" style="fill:rgb(160,160,160);"/>
                    </g>
                    <g transform="matrix(-1.02444,-9.21478e-16,-1.35786e-15,1.11825,1265.48,-629.504)">
                        <path d="M517.226,693.539L503.326,693.749L503.238,648.24C502.967,644.884 501.752,639.428 498.805,637.293L514.107,635.868C514.969,637.081 515.804,638.735 516.604,640.989C516.681,638.613 520.187,637.416 524.17,637.16L543.33,637.404L543.478,648.336L524.711,648.285C519.679,649.137 517.236,652.021 517.107,656.721L517.226,693.539Z" style="fill:white;"/>
                        <path d="M517.556,636.321C517.236,635.744 516.913,635.231 516.589,634.775C516.027,633.984 514.916,633.538 513.774,633.645L498.471,635.069C497.367,635.172 496.441,635.771 496.099,636.603C495.757,637.436 496.062,638.349 496.879,638.941C497.761,639.58 498.362,640.647 498.867,641.82C499.786,643.959 500.239,646.47 500.394,648.314L500.483,693.752C500.484,694.353 500.792,694.928 501.337,695.348C501.882,695.769 502.618,695.999 503.381,695.987L517.281,695.778C518.833,695.755 520.074,694.756 520.07,693.533C520.07,693.533 519.951,656.745 519.952,656.718C520.057,653.393 521.559,651.211 525.031,650.526L543.469,650.575C544.23,650.577 544.96,650.339 545.496,649.913C546.033,649.488 546.33,648.911 546.322,648.312L546.174,637.38C546.157,636.167 544.917,635.185 543.376,635.165L524.216,634.921C524.124,634.919 524.031,634.922 523.939,634.928C521.524,635.083 519.27,635.564 517.556,636.321ZM517.226,693.539L503.326,693.749L503.238,648.24C502.967,644.884 501.752,639.428 498.805,637.293L514.107,635.868C514.969,637.081 515.804,638.735 516.604,640.989C516.681,638.613 520.187,637.416 524.17,637.16L543.33,637.404L543.478,648.336L524.711,648.285C519.679,649.137 517.236,652.021 517.107,656.721L517.226,693.539Z" style="fill:rgb(160,160,160);"/>
                    </g>
                    <g transform="matrix(1.02444,-9.21478e-16,1.35786e-15,1.11825,236.15,-629.504)">
                        <path d="M517.226,693.539L503.326,693.749L503.238,648.24C502.967,644.884 501.752,639.428 498.805,637.293L514.107,635.868C514.969,637.081 515.804,638.735 516.604,640.989C516.681,638.613 520.187,637.416 524.17,637.16L543.33,637.404L543.478,648.336L524.711,648.285C519.679,649.137 517.236,652.021 517.107,656.721L517.226,693.539Z" style="fill:rgb(55,122,184);"/>
                        <path d="M517.556,636.321C519.27,635.564 521.524,635.083 523.939,634.928C524.031,634.922 524.124,634.919 524.216,634.921L543.376,635.165C544.917,635.185 546.157,636.167 546.174,637.38L546.322,648.312C546.33,648.911 546.033,649.488 545.496,649.913C544.96,650.339 544.23,650.577 543.469,650.575C543.469,650.575 525.031,650.526 525.027,650.526C521.55,651.213 520.049,653.404 519.951,656.745L520.07,693.533C520.074,694.756 518.833,695.755 517.281,695.778L503.381,695.987C502.618,695.999 501.882,695.769 501.337,695.348C500.792,694.928 500.484,694.353 500.483,693.752C500.483,693.752 500.394,648.314 500.393,648.3C500.237,646.457 499.784,643.953 498.867,641.82C498.362,640.647 497.761,639.58 496.879,638.941C496.062,638.349 495.757,637.436 496.099,636.603C496.441,635.771 497.367,635.172 498.471,635.069L513.774,633.645C514.916,633.538 516.027,633.984 516.589,634.775C516.913,635.231 517.236,635.744 517.556,636.321ZM517.226,693.539L517.107,656.721C517.236,652.021 519.679,649.137 524.711,648.285L543.478,648.336L543.33,637.404L524.17,637.16C520.187,637.416 516.681,638.613 516.604,640.989C515.804,638.735 514.969,637.081 514.107,635.868L498.805,637.293C501.752,639.428 502.967,644.884 503.238,648.24L503.326,693.749L517.226,693.539Z"/>
                    </g>
                </g>
                <g transform="matrix(0.582634,0,0,0.500829,-7.72492,3.60912)">
                    <g transform="matrix(1.20983,0,0,1,-158.399,0)">
                        <g transform="matrix(98.3537,0,0,98.3537,1041.92,1315.17)">
                        </g>
                        <text x="754.882px" y="1315.17px" style="font-family:'Baloo2-Medium', 'Baloo 2', cursive;font-weight:500;font-size:98.354px;fill:rgb(55,122,184);">C<tspan x="806.303px 857.447px 878.657px 899.705px 945.833px 996.78px " y="1315.17px 1315.17px 1315.17px 1315.17px 1315.17px 1315.17px ">ollabs</tspan></text>
                    </g>
                </g>
            </g>
        </g>
        <g id="rFranchise-International" serif:id="rFranchise International">
        </g>
    </g>
</svg>
