<?xml version="1.0" encoding="UTF-8" standalone="no"?>
<!DOCTYPE svg PUBLIC "-//W3C//DTD SVG 1.1//EN" "http://www.w3.org/Graphics/SVG/1.1/DTD/svg11.dtd">
<svg width="100%" height="100%" viewBox="0 0 149 157" version="1.1" xmlns="http://www.w3.org/2000/svg" xmlns:xlink="http://www.w3.org/1999/xlink" xml:space="preserve" xmlns:serif="http://www.serif.com/" style="fill-rule:evenodd;clip-rule:evenodd;stroke-linejoin:round;stroke-miterlimit:2;">
    <g transform="matrix(1,0,0,1,-1270.24,-329.735)">
        <g transform="matrix(0.491339,0,0,0.552322,-278.985,-403.52)">
            <g id="Logo---Blue" serif:id="Logo - Blue" transform="matrix(-2.73979,1.40716,-1.58182,-2.43728,6117.4,4166.23)">
                <path d="M301.115,1223.57C301.899,1223.66 302.915,1223.92 304.164,1224.34C305.413,1224.75 306.709,1225.35 308.051,1226.13C310.645,1227.62 312.28,1229.23 312.957,1230.95C313.633,1232.67 313.29,1234.71 311.929,1237.07L286.162,1281.7C284.853,1283.97 283.345,1285.55 281.639,1286.44C279.933,1287.33 277.729,1287.84 275.027,1287.97C271.491,1288.11 267.395,1287.56 262.741,1286.32C258.087,1285.09 253.344,1283.07 248.514,1280.28C240.641,1275.74 238.014,1271.2 240.633,1266.66C241.261,1265.57 242.029,1264.66 242.937,1263.91C243.845,1263.17 244.732,1262.56 245.598,1262.09C246.388,1262.79 247.401,1263.62 248.639,1264.57C249.876,1265.53 251.255,1266.45 252.775,1267.32C256.354,1269.39 259.842,1270.89 263.239,1271.82C266.636,1272.76 269.704,1273.23 272.442,1273.24L301.115,1223.57Z" style="fill:rgb(55,122,184);"/>
            </g>
        </g>
        <g transform="matrix(0.491339,0,0,0.552322,-278.985,-403.52)">
            <g id="Logo---Gold" serif:id="Logo - Gold" transform="matrix(1.62437,0,-1.54804e-46,1.44502,1816.56,581.635)">
                <circle cx="914.484" cy="542.467" r="26.247" style="fill:url(#_Radial1);"/>
            </g>
        </g>
        <g transform="matrix(0.491339,0,0,0.552322,-278.985,-403.52)">
            <g id="Logo--Grey" serif:id="Logo -Grey" transform="matrix(-9.91918,0,0,8.1399,19811.2,94.6237)">
                <path d="M1669.55,185.891C1669.32,186 1669,186.1 1668.59,186.19C1668.17,186.281 1667.72,186.326 1667.23,186.326C1666.27,186.326 1665.56,186.127 1665.1,185.728C1664.64,185.33 1664.41,184.66 1664.41,183.719L1664.41,165.901C1664.41,164.996 1664.58,164.263 1664.9,163.701C1665.23,163.14 1665.76,162.606 1666.49,162.099C1667.44,161.447 1668.66,160.904 1670.14,160.469C1671.62,160.035 1673.26,159.817 1675.04,159.817C1677.93,159.817 1679.38,160.723 1679.38,162.534C1679.38,162.968 1679.32,163.375 1679.19,163.756C1679.05,164.136 1678.91,164.471 1678.74,164.761C1678.41,164.688 1678,164.616 1677.51,164.543C1677.01,164.471 1676.49,164.435 1675.92,164.435C1674.61,164.435 1673.4,164.589 1672.32,164.896C1671.23,165.204 1670.31,165.594 1669.55,166.064L1669.55,185.891Z" style="fill:white;fill-rule:nonzero;"/>
            </g>
        </g>
    </g>
    <defs>
        <radialGradient id="_Radial1" cx="0" cy="0" r="1" gradientUnits="userSpaceOnUse" gradientTransform="matrix(18.4309,25.5797,-25.5797,18.4309,905.623,530.393)"><stop offset="0" style="stop-color:rgb(255,212,0);stop-opacity:1"/><stop offset="1" style="stop-color:rgb(153,118,0);stop-opacity:1"/></radialGradient>
    </defs>
</svg>
