<?xml version="1.0" encoding="UTF-8" standalone="no"?>
<!DOCTYPE svg PUBLIC "-//W3C//DTD SVG 1.1//EN" "http://www.w3.org/Graphics/SVG/1.1/DTD/svg11.dtd">
<svg width="100%" height="100%" viewBox="0 0 72 94" version="1.1" xmlns="http://www.w3.org/2000/svg" xmlns:xlink="http://www.w3.org/1999/xlink" xml:space="preserve" xmlns:serif="http://www.serif.com/" style="fill-rule:evenodd;clip-rule:evenodd;stroke-linejoin:round;stroke-miterlimit:2;">
    <g transform="matrix(1,0,0,1,-4125.43,-1641.74)">
        <g transform="matrix(1,0,0,1,-0.53258,0)">
            <g transform="matrix(0.787746,0,0,0.916416,3569.29,1597.78)">
                <g transform="matrix(-1.02444,-9.21478e-16,-1.35786e-15,1.11825,1266.86,-628.325)">
                    <path d="M517.226,693.539L503.326,693.749L503.238,648.24C502.967,644.884 501.752,639.428 498.805,637.293L514.107,635.868C514.969,637.081 515.804,638.735 516.604,640.989C516.681,638.613 520.187,637.416 524.17,637.16L543.33,637.404L543.478,648.336L524.711,648.285C519.679,649.137 517.236,652.021 517.107,656.721L517.226,693.539Z" style="fill:url(#_Linear1);"/>
                    <path d="M517.556,636.321C517.236,635.744 516.913,635.231 516.589,634.775C516.027,633.984 514.916,633.538 513.774,633.645L498.471,635.069C497.367,635.172 496.441,635.771 496.099,636.603C495.757,637.436 496.062,638.349 496.879,638.941C497.761,639.58 498.362,640.647 498.867,641.82C499.786,643.959 500.239,646.47 500.394,648.314L500.483,693.752C500.484,694.353 500.792,694.928 501.337,695.348C501.882,695.769 502.618,695.999 503.381,695.987L517.281,695.778C518.833,695.755 520.074,694.756 520.07,693.533C520.07,693.533 519.951,656.745 519.952,656.718C520.057,653.393 521.559,651.211 525.031,650.526L543.469,650.575C544.23,650.577 544.96,650.339 545.496,649.913C546.033,649.488 546.33,648.911 546.322,648.312L546.174,637.38C546.157,636.167 544.917,635.185 543.376,635.165L524.216,634.921C524.124,634.919 524.031,634.922 523.939,634.928C521.524,635.083 519.27,635.564 517.556,636.321ZM517.226,693.539L503.326,693.749L503.238,648.24C502.967,644.884 501.752,639.428 498.805,637.293L514.107,635.868C514.969,637.081 515.804,638.735 516.604,640.989C516.681,638.613 520.187,637.416 524.17,637.16L543.33,637.404L543.478,648.336L524.711,648.285C519.679,649.137 517.236,652.021 517.107,656.721L517.226,693.539Z"/>
                </g>
                <g transform="matrix(0.619835,0,-5.90709e-47,0.532807,183.156,-227.076)">
                    <circle cx="914.484" cy="542.467" r="26.247" style="fill:url(#_Radial2);"/>
                </g>
                <g transform="matrix(-1.02444,-9.21478e-16,-1.35786e-15,1.11825,1265.48,-629.504)">
                    <path d="M517.226,693.539L503.326,693.749L503.238,648.24C502.967,644.884 501.752,639.428 498.805,637.293L514.107,635.868C514.969,637.081 515.804,638.735 516.604,640.989C516.681,638.613 520.187,637.416 524.17,637.16L543.33,637.404L543.478,648.336L524.711,648.285C519.679,649.137 517.236,652.021 517.107,656.721L517.226,693.539Z" style="fill:white;"/>
                    <path d="M517.165,637.294C516.736,636.441 516.3,635.715 515.86,635.096C515.464,634.538 514.679,634.222 513.872,634.297L498.569,635.722C497.789,635.795 497.135,636.218 496.893,636.806C496.652,637.394 496.867,638.039 497.445,638.457C498.413,639.159 499.103,640.32 499.658,641.61C500.604,643.811 501.072,646.398 501.229,648.293L501.318,693.751C501.319,694.175 501.536,694.582 501.921,694.879C502.306,695.175 502.826,695.338 503.365,695.33L517.265,695.121C518.361,695.104 519.238,694.398 519.235,693.535C519.235,693.535 519.116,656.738 519.116,656.725C519.227,652.995 521.001,650.603 524.932,649.868L543.471,649.917C544.009,649.919 544.525,649.751 544.904,649.45C545.283,649.15 545.493,648.742 545.487,648.319L545.339,637.387C545.327,636.53 544.451,635.837 543.363,635.823L524.203,635.578C524.137,635.577 524.072,635.579 524.007,635.583C521.32,635.756 518.838,636.341 517.165,637.294ZM517.226,693.539L503.326,693.749L503.238,648.24C502.967,644.884 501.752,639.428 498.805,637.293L514.107,635.868C514.969,637.081 515.804,638.735 516.604,640.989C516.681,638.613 520.187,637.416 524.17,637.16L543.33,637.404L543.478,648.336L524.711,648.285C519.679,649.137 517.236,652.021 517.107,656.721L517.226,693.539Z"/>
                </g>
                <g transform="matrix(1.02444,-9.21478e-16,1.35786e-15,1.11825,237.522,-628.325)">
                    <path d="M517.226,693.539L503.326,693.749L503.238,648.24C502.967,644.884 501.752,639.428 498.805,637.293L514.107,635.868C514.969,637.081 515.804,638.735 516.604,640.989C516.681,638.613 520.187,637.416 524.17,637.16L543.33,637.404L543.478,648.336L524.711,648.285C519.679,649.137 517.236,652.021 517.107,656.721L517.226,693.539Z" style="fill:url(#_Linear3);"/>
                    <path d="M517.556,636.321C519.27,635.564 521.524,635.083 523.939,634.928C524.031,634.922 524.124,634.919 524.216,634.921L543.376,635.165C544.917,635.185 546.157,636.167 546.174,637.38L546.322,648.312C546.33,648.911 546.033,649.488 545.496,649.913C544.96,650.339 544.23,650.577 543.469,650.575C543.469,650.575 525.031,650.526 525.027,650.526C521.55,651.213 520.049,653.404 519.951,656.745L520.07,693.533C520.074,694.756 518.833,695.755 517.281,695.778L503.381,695.987C502.618,695.999 501.882,695.769 501.337,695.348C500.792,694.928 500.484,694.353 500.483,693.752C500.483,693.752 500.394,648.314 500.393,648.3C500.237,646.457 499.784,643.953 498.867,641.82C498.362,640.647 497.761,639.58 496.879,638.941C496.062,638.349 495.757,637.436 496.099,636.603C496.441,635.771 497.367,635.172 498.471,635.069L513.774,633.645C514.916,633.538 516.027,633.984 516.589,634.775C516.913,635.231 517.236,635.744 517.556,636.321ZM517.226,693.539L517.107,656.721C517.236,652.021 519.679,649.137 524.711,648.285L543.478,648.336L543.33,637.404L524.17,637.16C520.187,637.416 516.681,638.613 516.604,640.989C515.804,638.735 514.969,637.081 514.107,635.868L498.805,637.293C501.752,639.428 502.967,644.884 503.238,648.24L503.326,693.749L517.226,693.539Z"/>
                </g>
                <g transform="matrix(1.02444,-9.21478e-16,1.35786e-15,1.11825,236.15,-629.504)">
                    <path d="M517.226,693.539L503.326,693.749L503.238,648.24C502.967,644.884 501.752,639.428 498.805,637.293L514.107,635.868C514.969,637.081 515.804,638.735 516.604,640.989C516.681,638.613 520.187,637.416 524.17,637.16L543.33,637.404L543.478,648.336L524.711,648.285C519.679,649.137 517.236,652.021 517.107,656.721L517.226,693.539Z" style="fill:rgb(55,122,184);"/>
                    <path d="M517.165,637.294C518.838,636.341 521.32,635.756 524.007,635.583C524.072,635.579 524.137,635.577 524.203,635.578L543.363,635.823C544.451,635.837 545.327,636.53 545.339,637.387L545.487,648.319C545.493,648.742 545.283,649.15 544.904,649.45C544.525,649.751 544.009,649.919 543.471,649.917C543.471,649.917 524.932,649.868 524.927,649.869C520.996,650.604 519.223,653.001 519.116,656.738L519.235,693.535C519.238,694.398 518.361,695.104 517.265,695.121L503.365,695.33C502.826,695.338 502.306,695.175 501.921,694.879C501.536,694.582 501.319,694.175 501.318,693.751C501.318,693.751 501.229,648.293 501.228,648.284C501.071,646.391 500.603,643.808 499.658,641.61C499.103,640.32 498.413,639.159 497.445,638.457C496.867,638.039 496.652,637.394 496.893,636.806C497.135,636.218 497.789,635.795 498.569,635.722L513.872,634.297C514.679,634.222 515.464,634.538 515.86,635.096C516.3,635.715 516.736,636.441 517.165,637.294ZM517.226,693.539L517.107,656.721C517.236,652.021 519.679,649.137 524.711,648.285L543.478,648.336L543.33,637.404L524.17,637.16C520.187,637.416 516.681,638.613 516.604,640.989C515.804,638.735 514.969,637.081 514.107,635.868L498.805,637.293C501.752,639.428 502.967,644.884 503.238,648.24L503.326,693.749L517.226,693.539Z"/>
                </g>
            </g>
            <g transform="matrix(0.583091,0,0,0.583091,1824.12,843.031)">
                <path d="M3999.48,1526.85L3998.42,1525.79C4004.92,1519.6 4004.95,1519.65 4012.2,1512.95L4012.32,1513.07C4005.62,1520.32 4005.67,1520.35 3999.48,1526.85Z"/>
            </g>
            <g transform="matrix(0.796986,0,0,0.796986,966.664,475.428)">
                <path d="M3992.08,1534.25L3991.02,1531.93C3999.88,1524.57 3998.64,1524.59 4011.26,1513.89L4011.38,1514.01C3999.43,1526.63 3999.44,1526.64 3992.08,1534.25Z"/>
            </g>
            <g transform="matrix(0.796986,0,0,0.796986,966.664,486.216)">
                <path d="M3992.08,1534.25L3991.02,1531.93C3999.88,1524.57 3998.64,1524.59 4011.26,1513.89L4011.38,1514.01C3999.43,1526.63 3999.44,1526.64 3992.08,1534.25Z"/>
            </g>
            <g transform="matrix(0.796986,0,0,0.796986,966.664,497.023)">
                <path d="M3992.08,1534.25L3991.02,1531.93C3999.88,1524.57 3998.64,1524.59 4011.26,1513.89L4011.38,1514.01C3999.43,1526.63 3999.44,1526.64 3992.08,1534.25Z"/>
            </g>
            <g transform="matrix(0.796986,0,0,0.796986,966.664,507.852)">
                <path d="M3992.08,1534.25L3991.02,1531.93C3999.88,1524.57 3998.64,1524.59 4011.26,1513.89L4011.38,1514.01C3999.43,1526.63 3999.44,1526.64 3992.08,1534.25Z"/>
            </g>
            <g transform="matrix(0.796986,0,0,0.796986,966.664,518.852)">
                <path d="M4002.34,1523.55L4000.79,1523.16C4000.79,1523.16 4005.86,1518.47 4011.26,1513.89L4011.38,1514.01C4007.16,1518.47 4002.34,1523.55 4002.34,1523.55Z"/>
            </g>
            <g transform="matrix(1.0807,0,0,1.0807,-165.795,29.4846)">
                <path d="M3989.98,1536.35L3988.92,1535.29C3993.54,1530.92 3993.55,1530.94 4001.26,1523.89L4001.38,1524.01C3994.34,1531.72 3994.35,1531.73 3989.98,1536.35Z"/>
            </g>
            <g transform="matrix(1.0807,0,0,1.0807,-165.795,17.6677)">
                <path d="M3981.15,1545.18L3980.09,1544.12C3984.9,1539.62 3984.94,1539.66 3990.33,1534.83L3990.44,1534.94C3985.61,1540.33 3985.65,1540.37 3981.15,1545.18Z"/>
            </g>
            <g transform="matrix(1.0807,0,0,1.0807,-175.34,17.6677)">
                <path d="M3982.13,1544.2L3981.07,1543.14C3985.49,1539.03 3985.52,1539.08 3990.48,1534.68L3990.59,1534.79C3986.19,1539.75 3986.24,1539.78 3982.13,1544.2Z"/>
            </g>
        </g>
    </g>
    <defs>
        <linearGradient id="_Linear1" x1="0" y1="0" x2="1" y2="0" gradientUnits="userSpaceOnUse" gradientTransform="matrix(41.0907,3.7823e-14,4.79218e-14,-32.3583,502.388,664.808)"><stop offset="0" style="stop-color:rgb(168,176,176);stop-opacity:1"/><stop offset="0.19" style="stop-color:rgb(204,209,209);stop-opacity:1"/><stop offset="0.41" style="stop-color:rgb(239,241,241);stop-opacity:1"/><stop offset="1" style="stop-color:white;stop-opacity:1"/></linearGradient>
        <radialGradient id="_Radial2" cx="0" cy="0" r="1" gradientUnits="userSpaceOnUse" gradientTransform="matrix(18.4309,25.5797,-25.5797,18.4309,905.623,530.393)"><stop offset="0" style="stop-color:rgb(255,212,0);stop-opacity:1"/><stop offset="1" style="stop-color:rgb(153,118,0);stop-opacity:1"/></radialGradient>
        <linearGradient id="_Linear3" x1="0" y1="0" x2="1" y2="0" gradientUnits="userSpaceOnUse" gradientTransform="matrix(41.0907,9.12397e-15,-7.18499e-15,32.3583,502.388,664.808)"><stop offset="0" style="stop-color:rgb(26,75,122);stop-opacity:1"/><stop offset="0.2" style="stop-color:rgb(58,107,154);stop-opacity:1"/><stop offset="0.42" style="stop-color:rgb(92,141,187);stop-opacity:1"/><stop offset="1" style="stop-color:rgb(108,157,203);stop-opacity:1"/></linearGradient>
    </defs>
</svg>
