<?xml version="1.0" encoding="UTF-8" standalone="no"?>
<!DOCTYPE svg PUBLIC "-//W3C//DTD SVG 1.1//EN" "http://www.w3.org/Graphics/SVG/1.1/DTD/svg11.dtd">
<svg width="100%" height="100%" viewBox="0 0 641 104" version="1.1" xmlns="http://www.w3.org/2000/svg" xmlns:xlink="http://www.w3.org/1999/xlink" xml:space="preserve" xmlns:serif="http://www.serif.com/" style="fill-rule:evenodd;clip-rule:evenodd;stroke-linejoin:round;stroke-miterlimit:2;">
    <g transform="matrix(1,0,0,1,-1476.85,-133.975)">
        <g transform="matrix(1,0,0,1,-72,-20)">
            <g transform="matrix(0.206934,0,0,0.206934,1542.04,95.0516)">
                <g transform="matrix(1.12107,0,0,1.07746,106.284,-29.518)">
                    <rect x="1349.18" y="291.668" width="446.003" height="464.053" style="fill:white;fill-opacity:0;"/>
                </g>
                <g transform="matrix(0.733004,0,0,0.733004,450.681,252.304)">
                    <g transform="matrix(14.1097,0,0,14.1097,-7660.69,-2355.73)">
                        <path d="M666.377,191.418C666.362,191.355 666.347,191.293 666.332,191.23L662.287,190.65C662.035,188.926 662.035,187.174 662.287,185.45L666.332,184.87C666.683,183.357 667.281,181.914 668.102,180.596L665.652,177.326C666.693,175.928 667.932,174.69 669.329,173.649L672.6,176.099C673.917,175.277 675.361,174.679 676.873,174.329L677.454,170.284C679.178,170.031 680.929,170.031 682.653,170.284L683.234,174.329C684.746,174.679 686.19,175.277 687.507,176.099L690.778,173.649C692.175,174.69 693.414,175.928 694.454,177.326L692.005,180.596C692.826,181.914 693.424,183.357 693.775,184.87L697.82,185.45C698.072,187.174 698.072,188.926 697.82,190.65L693.775,191.23C693.76,191.296 693.744,191.362 693.727,191.428L693.905,191.355C693.843,192.445 693.125,194.047 692.223,195.794L694.454,198.774C693.414,200.172 692.175,201.41 690.778,202.451L689.312,201.353C689.251,201.483 689.192,201.612 689.135,201.739C688.399,203.381 688.104,205.547 688.104,207.036C688.104,208.989 686.472,210.525 685.311,210.525C683.108,210.525 677.653,210.516 675.349,210.516C673.045,210.516 672.018,209.035 672.018,206.732C672.018,205.465 671.537,203.859 671.184,202.447C671.091,202.076 670.971,201.702 670.829,201.328L669.329,202.451C667.932,201.41 666.693,200.172 665.652,198.774L667.901,195.771C667.06,194.249 666.361,192.762 666.219,191.355L666.377,191.418ZM680.053,181.344C676.352,181.344 673.347,184.349 673.347,188.05C673.347,191.751 676.352,194.756 680.053,194.756C683.755,194.756 686.76,191.751 686.76,188.05C686.76,184.349 683.755,181.344 680.053,181.344Z" style="fill:rgb(34,127,175);"/>
                    </g>
                    <g transform="matrix(1.285,0,0,1.285,-524.157,-355.51)">
                        <circle cx="1913.5" cy="511.5" r="120.5" style="fill:white;"/>
                    </g>
                    <g transform="matrix(11.3464,0,0,11.3464,-5946.35,-1002.41)">
                        <path d="M701.122,150.295C701.122,150.295 700.236,152.364 698.249,152.364C696.602,152.364 691.98,152.346 690.828,152.346C689.676,152.346 688.481,151.394 688.047,150.295" style="fill:rgb(34,127,175);"/>
                    </g>
                    <g transform="matrix(1,0,0,1,0,2)">
                        <rect x="1860.52" y="665.531" width="148.354" height="20.645" style="fill:rgb(34,127,175);"/>
                    </g>
                    <g transform="matrix(1,0,0,1,0,-34.6593)">
                        <rect x="1860.52" y="665.531" width="148.354" height="20.645" style="fill:rgb(34,127,175);"/>
                    </g>
                </g>
                <g transform="matrix(2.07373,0,0,2.07373,-2748.06,-556.941)">
                    <path d="M2234.39,498.478L2234.39,519.592C2234.39,520.547 2234.42,521.201 2234.49,521.555C2234.7,523.677 2235.02,524.738 2235.45,524.738C2235.38,524.738 2235.55,524.702 2235.98,524.632C2236.4,524.561 2236.93,524.455 2237.57,524.313L2237.46,524.419C2237.68,524.349 2237.94,524.278 2238.26,524.207C2238.58,524.137 2238.99,524.101 2239.48,524.101C2243.16,524.101 2245,525.657 2245,528.77C2245,530.184 2244.41,531.351 2243.25,532.271C2242.08,533.19 2240.61,533.65 2238.84,533.65C2238.28,533.65 2237.57,533.615 2236.72,533.544C2235.87,533.473 2234.88,533.367 2233.75,533.226C2232.69,533.084 2231.77,532.961 2230.99,532.854C2230.21,532.748 2229.58,532.695 2229.08,532.695C2228.3,532.695 2227.44,532.731 2226.48,532.801C2225.53,532.872 2224.52,532.978 2223.46,533.12C2222.19,533.261 2221.11,533.385 2220.22,533.491C2219.34,533.597 2218.61,533.65 2218.05,533.65C2214.23,533.65 2212.32,532.023 2212.32,528.77C2212.32,525.657 2214.05,524.101 2217.52,524.101C2217.66,524.101 2218.07,524.137 2218.74,524.207C2219.41,524.278 2219.96,524.349 2220.38,524.419C2220.88,524.561 2221.27,524.632 2221.55,524.632L2222.19,524.632C2222.75,524.632 2223.14,522.934 2223.35,519.539L2223.35,493.969C2223.14,490.644 2222.72,488.982 2222.08,488.982C2221.94,488.982 2221.69,489.018 2221.34,489.088C2220.98,489.159 2220.56,489.265 2220.06,489.407C2219.71,489.548 2219.3,489.637 2218.84,489.672C2218.38,489.707 2218.01,489.725 2217.73,489.725C2214.12,489.725 2212.32,488.169 2212.32,485.057C2212.32,481.874 2214.37,480.282 2218.47,480.282L2220.38,480.282C2220.88,480.282 2221.23,480.317 2221.44,480.388C2222.43,480.53 2223.26,480.636 2223.94,480.706C2224.61,480.777 2225.05,480.813 2225.26,480.813C2225.4,480.813 2225.7,480.795 2226.16,480.76C2226.62,480.724 2227.07,480.671 2227.49,480.6L2230.25,480.282C2233.29,480.282 2234.81,482.05 2234.81,485.587L2234.81,487.072C2234.74,487.355 2234.7,487.585 2234.7,487.762L2234.7,488.133C2234.64,488.346 2234.6,489.336 2234.6,491.104C2234.6,491.599 2234.58,492.112 2234.55,492.643C2234.51,493.173 2234.49,493.721 2234.49,494.287C2234.42,495.702 2234.39,497.099 2234.39,498.478ZM2227.38,472.124C2225.33,472.124 2223.6,471.452 2222.19,470.108C2220.77,468.764 2220.06,467.102 2220.06,465.122C2220.06,463.141 2220.77,461.497 2222.19,460.188C2223.6,458.879 2225.33,458.225 2227.38,458.225C2229.44,458.225 2231.19,458.879 2232.64,460.188C2234.09,461.497 2234.81,463.141 2234.81,465.122C2234.81,467.102 2234.09,468.764 2232.64,470.108C2231.19,471.452 2229.44,472.124 2227.38,472.124Z" style="fill:rgb(34,127,175);fill-rule:nonzero;"/>
                </g>
            </g>
            <g transform="matrix(1,0,0,0.911192,-4,-11.0272)">
                <path d="M1556.93,251.911C1556.78,251.97 1556.56,252.037 1556.26,252.112C1555.96,252.186 1555.63,252.224 1555.28,252.224C1553.99,252.224 1553.35,251.687 1553.35,250.614L1553.35,235.458C1553.35,234.772 1553.48,234.228 1553.73,233.826C1553.99,233.423 1554.41,233.028 1555.01,232.641C1555.78,232.134 1556.83,231.694 1558.16,231.322C1559.49,230.949 1560.98,230.763 1562.65,230.763C1565.04,230.763 1566.23,231.359 1566.23,232.551C1566.23,232.849 1566.18,233.125 1566.1,233.379C1566.01,233.632 1565.89,233.848 1565.74,234.027C1565.44,233.967 1565.05,233.908 1564.58,233.848C1564.1,233.788 1563.62,233.759 1563.14,233.759C1561.77,233.759 1560.57,233.9 1559.52,234.183C1558.48,234.466 1557.62,234.802 1556.93,235.189L1556.93,251.911Z" style="fill:rgb(34,127,175);fill-rule:nonzero;stroke:black;stroke-width:1.05px;"/>
                <path d="M1587.11,242.298L1587.11,251.911C1586.93,251.97 1586.69,252.037 1586.39,252.112C1586.1,252.186 1585.77,252.224 1585.41,252.224C1584.1,252.224 1583.44,251.672 1583.44,250.569L1583.44,226.784C1583.44,226.307 1583.56,225.942 1583.8,225.689C1584.04,225.435 1584.41,225.234 1584.92,225.085C1585.78,224.817 1586.83,224.623 1588.07,224.504C1589.31,224.385 1590.51,224.325 1591.67,224.325C1595.45,224.325 1598.22,225.122 1599.96,226.717C1601.71,228.311 1602.58,230.465 1602.58,233.177C1602.58,235.949 1601.68,238.162 1599.9,239.817C1598.11,241.471 1595.35,242.298 1591.62,242.298L1587.11,242.298ZM1591.4,239.258C1593.79,239.258 1595.63,238.766 1596.94,237.782C1598.26,236.799 1598.91,235.279 1598.91,233.222C1598.91,231.195 1598.28,229.712 1597.01,228.773C1595.75,227.835 1593.93,227.365 1591.58,227.365C1590.78,227.365 1589.98,227.402 1589.19,227.477C1588.4,227.551 1587.69,227.648 1587.06,227.768L1587.06,239.258L1591.4,239.258Z" style="fill:rgb(34,127,175);fill-rule:nonzero;stroke:black;stroke-width:1.05px;"/>
                <path d="M1624.84,251.911C1624.66,251.97 1624.43,252.037 1624.13,252.112C1623.83,252.186 1623.5,252.224 1623.14,252.224C1621.83,252.224 1621.18,251.672 1621.18,250.569L1621.18,226.784C1621.18,226.307 1621.3,225.942 1621.54,225.689C1621.77,225.435 1622.15,225.234 1622.65,225.085C1623.52,224.817 1624.58,224.623 1625.85,224.504C1627.12,224.385 1628.35,224.325 1629.54,224.325C1633.29,224.325 1636.09,225.077 1637.92,226.583C1639.75,228.088 1640.67,230.227 1640.67,232.999C1640.67,235.055 1640.14,236.784 1639.08,238.185C1638.03,239.586 1636.42,240.584 1634.28,241.18C1635.02,242.134 1635.77,243.088 1636.51,244.042C1637.26,244.996 1637.97,245.897 1638.64,246.747C1639.31,247.596 1639.9,248.364 1640.42,249.049C1640.95,249.735 1641.36,250.271 1641.65,250.659C1641.54,251.165 1641.27,251.568 1640.87,251.866C1640.47,252.164 1640.06,252.313 1639.64,252.313C1639.14,252.313 1638.72,252.194 1638.39,251.955C1638.06,251.717 1637.72,251.344 1637.36,250.838L1630.84,241.717L1624.84,241.717L1624.84,251.911ZM1629.94,238.677C1632.15,238.677 1633.88,238.2 1635.13,237.246C1636.38,236.292 1637,234.876 1637,232.999C1637,231.121 1636.35,229.712 1635.04,228.773C1633.73,227.835 1631.85,227.365 1629.4,227.365C1628.6,227.365 1627.79,227.402 1626.97,227.477C1626.15,227.551 1625.42,227.648 1624.8,227.768L1624.8,238.677L1629.94,238.677Z" style="fill:rgb(34,127,175);fill-rule:nonzero;stroke:black;stroke-width:1.05px;"/>
                <path d="M1683.99,238.408C1683.99,240.733 1683.67,242.782 1683.01,244.556C1682.36,246.329 1681.45,247.805 1680.28,248.982C1679.12,250.159 1677.75,251.054 1676.17,251.665C1674.59,252.276 1672.88,252.581 1671.03,252.581C1669.18,252.581 1667.47,252.276 1665.89,251.665C1664.31,251.054 1662.94,250.159 1661.77,248.982C1660.61,247.805 1659.7,246.329 1659.05,244.556C1658.39,242.782 1658.06,240.733 1658.06,238.408C1658.06,236.083 1658.4,234.042 1659.07,232.283C1659.74,230.525 1660.66,229.049 1661.82,227.857C1662.98,226.665 1664.35,225.763 1665.93,225.152C1667.51,224.541 1669.21,224.235 1671.03,224.235C1672.85,224.235 1674.55,224.541 1676.12,225.152C1677.7,225.763 1679.08,226.665 1680.24,227.857C1681.4,229.049 1682.32,230.525 1682.99,232.283C1683.66,234.042 1683.99,236.083 1683.99,238.408ZM1680.28,238.408C1680.28,234.832 1679.44,232.089 1677.76,230.182C1676.07,228.274 1673.83,227.32 1671.03,227.32C1669.63,227.32 1668.36,227.566 1667.23,228.058C1666.1,228.55 1665.13,229.265 1664.32,230.204C1663.52,231.143 1662.9,232.298 1662.47,233.669C1662.03,235.04 1661.82,236.62 1661.82,238.408C1661.82,241.985 1662.65,244.727 1664.32,246.635C1665.99,248.542 1668.23,249.496 1671.03,249.496C1673.86,249.496 1676.11,248.542 1677.78,246.635C1679.45,244.727 1680.28,241.985 1680.28,238.408Z" style="fill:rgb(34,127,175);fill-rule:nonzero;stroke:black;stroke-width:1.05px;"/>
                <path d="M1711.36,227.902L1711.36,251.911C1711.21,251.97 1710.98,252.037 1710.66,252.112C1710.35,252.186 1710.03,252.224 1709.7,252.224C1708.39,252.224 1707.74,251.672 1707.74,250.569L1707.74,227.902L1699.37,227.902C1699.29,227.753 1699.19,227.551 1699.11,227.298C1699.02,227.045 1698.97,226.754 1698.97,226.426C1698.97,225.92 1699.09,225.525 1699.33,225.241C1699.57,224.958 1699.91,224.817 1700.36,224.817L1719.72,224.817C1719.81,224.966 1719.9,225.167 1719.99,225.42C1720.08,225.674 1720.12,225.949 1720.12,226.247C1720.12,226.754 1720,227.156 1719.76,227.455C1719.52,227.753 1719.18,227.902 1718.73,227.902L1711.36,227.902Z" style="fill:rgb(34,127,175);fill-rule:nonzero;stroke:black;stroke-width:1.05px;"/>
                <path d="M1760.81,238.408C1760.81,240.733 1760.48,242.782 1759.82,244.556C1759.16,246.329 1758.26,247.805 1757.09,248.982C1755.93,250.159 1754.56,251.054 1752.98,251.665C1751.4,252.276 1749.69,252.581 1747.84,252.581C1745.99,252.581 1744.28,252.276 1742.7,251.665C1741.12,251.054 1739.75,250.159 1738.58,248.982C1737.42,247.805 1736.51,246.329 1735.86,244.556C1735.2,242.782 1734.87,240.733 1734.87,238.408C1734.87,236.083 1735.21,234.042 1735.88,232.283C1736.55,230.525 1737.47,229.049 1738.63,227.857C1739.79,226.665 1741.16,225.763 1742.74,225.152C1744.32,224.541 1746.02,224.235 1747.84,224.235C1749.66,224.235 1751.36,224.541 1752.94,225.152C1754.52,225.763 1755.89,226.665 1757.05,227.857C1758.21,229.049 1759.13,230.525 1759.8,232.283C1760.47,234.042 1760.81,236.083 1760.81,238.408ZM1757.09,238.408C1757.09,234.832 1756.25,232.089 1754.57,230.182C1752.88,228.274 1750.64,227.32 1747.84,227.32C1746.44,227.32 1745.17,227.566 1744.04,228.058C1742.91,228.55 1741.94,229.265 1741.13,230.204C1740.33,231.143 1739.71,232.298 1739.28,233.669C1738.85,235.04 1738.63,236.62 1738.63,238.408C1738.63,241.985 1739.46,244.727 1741.13,246.635C1742.8,248.542 1745.04,249.496 1747.84,249.496C1750.67,249.496 1752.92,248.542 1754.59,246.635C1756.26,244.727 1757.09,241.985 1757.09,238.408Z" style="fill:rgb(34,127,175);fill-rule:nonzero;stroke:black;stroke-width:1.05px;"/>
                <path d="M1799.48,227.812C1799.48,228.23 1799.35,228.587 1799.1,228.885C1798.85,229.183 1798.55,229.407 1798.23,229.556C1797.45,229.019 1796.54,228.513 1795.5,228.036C1794.46,227.559 1793.1,227.32 1791.43,227.32C1790.06,227.32 1788.79,227.559 1787.63,228.036C1786.47,228.513 1785.45,229.213 1784.59,230.137C1783.73,231.061 1783.05,232.224 1782.56,233.624C1782.06,235.025 1781.82,236.635 1781.82,238.453C1781.82,240.301 1782.06,241.911 1782.53,243.282C1783.01,244.653 1783.67,245.8 1784.52,246.724C1785.37,247.648 1786.39,248.341 1787.59,248.803C1788.78,249.265 1790.1,249.496 1791.57,249.496C1793.12,249.496 1794.46,249.28 1795.61,248.848C1796.76,248.416 1797.72,247.902 1798.5,247.306C1798.79,247.425 1799.08,247.641 1799.34,247.954C1799.61,248.267 1799.75,248.632 1799.75,249.049C1799.75,249.675 1799.39,250.241 1798.67,250.748C1797.99,251.225 1797.05,251.65 1795.86,252.022C1794.66,252.395 1793.14,252.581 1791.3,252.581C1789.42,252.581 1787.67,252.283 1786.07,251.687C1784.46,251.091 1783.06,250.204 1781.88,249.027C1780.71,247.849 1779.78,246.382 1779.09,244.623C1778.4,242.864 1778.06,240.808 1778.06,238.453C1778.06,236.098 1778.41,234.034 1779.11,232.261C1779.81,230.487 1780.76,229.004 1781.95,227.812C1783.14,226.62 1784.54,225.726 1786.13,225.13C1787.73,224.534 1789.4,224.235 1791.16,224.235C1792.38,224.235 1793.51,224.34 1794.54,224.548C1795.57,224.757 1796.45,225.033 1797.18,225.376C1797.91,225.718 1798.47,226.106 1798.88,226.538C1799.28,226.97 1799.48,227.395 1799.48,227.812Z" style="fill:rgb(34,127,175);fill-rule:nonzero;stroke:black;stroke-width:1.05px;"/>
                <path d="M1842.22,238.408C1842.22,240.733 1841.89,242.782 1841.24,244.556C1840.58,246.329 1839.67,247.805 1838.51,248.982C1837.35,250.159 1835.98,251.054 1834.4,251.665C1832.82,252.276 1831.1,252.581 1829.26,252.581C1827.41,252.581 1825.69,252.276 1824.11,251.665C1822.53,251.054 1821.16,250.159 1820,248.982C1818.84,247.805 1817.93,246.329 1817.27,244.556C1816.62,242.782 1816.29,240.733 1816.29,238.408C1816.29,236.083 1816.62,234.042 1817.3,232.283C1817.97,230.525 1818.88,229.049 1820.05,227.857C1821.21,226.665 1822.58,225.763 1824.16,225.152C1825.74,224.541 1827.44,224.235 1829.26,224.235C1831.07,224.235 1832.77,224.541 1834.35,225.152C1835.93,225.763 1837.3,226.665 1838.47,227.857C1839.63,229.049 1840.54,230.525 1841.22,232.283C1841.88,234.042 1842.22,236.083 1842.22,238.408ZM1838.51,238.408C1838.51,234.832 1837.67,232.089 1835.98,230.182C1834.3,228.274 1832.06,227.32 1829.26,227.32C1827.85,227.32 1826.59,227.566 1825.45,228.058C1824.32,228.55 1823.35,229.265 1822.55,230.204C1821.74,231.143 1821.12,232.298 1820.69,233.669C1820.26,235.04 1820.05,236.62 1820.05,238.408C1820.05,241.985 1820.88,244.727 1822.55,246.635C1824.22,248.542 1826.45,249.496 1829.26,249.496C1832.09,249.496 1834.34,248.542 1836.01,246.635C1837.67,244.727 1838.51,241.985 1838.51,238.408Z" style="fill:rgb(34,127,175);fill-rule:nonzero;stroke:black;stroke-width:1.05px;"/>
                <path d="M1863.01,252C1862.44,252 1861.98,251.821 1861.6,251.463C1861.23,251.106 1861.04,250.629 1861.04,250.033L1861.04,224.906C1861.19,224.846 1861.42,224.779 1861.74,224.705C1862.05,224.63 1862.38,224.593 1862.74,224.593C1864.05,224.593 1864.71,225.145 1864.71,226.247L1864.71,248.87L1877.54,248.87C1877.87,249.198 1878.03,249.69 1878.03,250.346C1878.03,250.852 1877.9,251.255 1877.63,251.553C1877.36,251.851 1877,252 1876.56,252L1863.01,252Z" style="fill:rgb(34,127,175);fill-rule:nonzero;stroke:black;stroke-width:1.05px;"/>
            </g>
            <g transform="matrix(1,0,0,0.911192,433,-11.0272)">
                <path d="M1561.49,249.541C1563.49,249.541 1565,249.086 1566.03,248.177C1567.06,247.268 1567.57,246.098 1567.57,244.668C1567.57,243.416 1567.18,242.402 1566.39,241.627C1565.6,240.852 1564.35,240.212 1562.65,239.705L1558.76,238.542C1556.86,237.976 1555.36,237.142 1554.27,236.039C1553.18,234.936 1552.64,233.446 1552.64,231.568C1552.64,230.435 1552.85,229.414 1553.29,228.505C1553.72,227.596 1554.34,226.829 1555.14,226.203C1555.95,225.577 1556.91,225.092 1558.03,224.75C1559.14,224.407 1560.4,224.235 1561.8,224.235C1563,224.235 1564.11,224.332 1565.13,224.526C1566.16,224.72 1567.06,224.988 1567.82,225.331C1568.58,225.674 1569.16,226.054 1569.58,226.471C1570,226.888 1570.21,227.32 1570.21,227.768C1570.21,228.185 1570.1,228.542 1569.9,228.841C1569.69,229.139 1569.42,229.377 1569.09,229.556C1568.32,228.96 1567.31,228.438 1566.07,227.991C1564.84,227.544 1563.46,227.32 1561.94,227.32C1560.18,227.32 1558.8,227.693 1557.8,228.438C1556.8,229.183 1556.3,230.227 1556.3,231.568C1556.3,232.611 1556.66,233.461 1557.38,234.116C1558.09,234.772 1559.29,235.338 1560.95,235.815L1563.68,236.62C1566.04,237.306 1567.89,238.267 1569.25,239.504C1570.6,240.741 1571.28,242.462 1571.28,244.668C1571.28,247.022 1570.43,248.93 1568.73,250.39C1567.03,251.851 1564.62,252.581 1561.49,252.581C1560.12,252.581 1558.88,252.462 1557.76,252.224C1556.64,251.985 1555.69,251.672 1554.9,251.285C1554.11,250.897 1553.5,250.472 1553.06,250.01C1552.63,249.548 1552.41,249.094 1552.41,248.647C1552.41,248.14 1552.57,247.715 1552.88,247.373C1553.2,247.03 1553.56,246.784 1553.98,246.635C1554.31,246.963 1554.71,247.298 1555.19,247.641C1555.66,247.984 1556.22,248.297 1556.84,248.58C1557.47,248.863 1558.17,249.094 1558.94,249.273C1559.72,249.452 1560.57,249.541 1561.49,249.541Z" style="fill:rgb(249,196,2);fill-rule:nonzero;stroke:black;stroke-width:1.05px;"/>
                <path d="M1598.55,227.902L1598.55,251.911C1598.4,251.97 1598.17,252.037 1597.86,252.112C1597.55,252.186 1597.23,252.224 1596.9,252.224C1595.59,252.224 1594.93,251.672 1594.93,250.569L1594.93,227.902L1586.57,227.902C1586.48,227.753 1586.39,227.551 1586.3,227.298C1586.22,227.045 1586.17,226.754 1586.17,226.426C1586.17,225.92 1586.29,225.525 1586.53,225.241C1586.77,224.958 1587.11,224.817 1587.56,224.817L1606.91,224.817C1607,224.966 1607.09,225.167 1607.18,225.42C1607.27,225.674 1607.32,225.949 1607.32,226.247C1607.32,226.754 1607.2,227.156 1606.96,227.455C1606.72,227.753 1606.38,227.902 1605.93,227.902L1598.55,227.902Z" style="fill:rgb(249,196,2);fill-rule:nonzero;stroke:black;stroke-width:1.05px;"/>
                <path d="M1645.9,242.611C1645.9,244.131 1645.67,245.502 1645.21,246.724C1644.75,247.946 1644.06,248.99 1643.15,249.854C1642.24,250.718 1641.13,251.389 1639.82,251.866C1638.51,252.343 1637,252.581 1635.31,252.581C1633.61,252.581 1632.1,252.343 1630.79,251.866C1629.48,251.389 1628.38,250.718 1627.48,249.854C1626.59,248.99 1625.91,247.946 1625.45,246.724C1624.99,245.502 1624.75,244.131 1624.75,242.611L1624.75,224.906C1624.9,224.846 1625.13,224.779 1625.45,224.705C1625.76,224.63 1626.1,224.593 1626.45,224.593C1627.74,224.593 1628.38,225.145 1628.38,226.247L1628.38,242.298C1628.38,243.49 1628.55,244.534 1628.91,245.428C1629.27,246.322 1629.75,247.075 1630.37,247.686C1630.98,248.297 1631.71,248.751 1632.56,249.049C1633.4,249.347 1634.32,249.496 1635.31,249.496C1636.29,249.496 1637.21,249.347 1638.06,249.049C1638.9,248.751 1639.63,248.297 1640.25,247.686C1640.86,247.075 1641.34,246.322 1641.7,245.428C1642.06,244.534 1642.24,243.49 1642.24,242.298L1642.24,224.906C1642.38,224.846 1642.62,224.779 1642.93,224.705C1643.24,224.63 1643.58,224.593 1643.93,224.593C1645.25,224.593 1645.9,225.145 1645.9,226.247L1645.9,242.611Z" style="fill:rgb(249,196,2);fill-rule:nonzero;stroke:black;stroke-width:1.05px;"/>
                <path d="M1685.25,238.095C1685.25,236.188 1684.95,234.556 1684.37,233.2C1683.79,231.844 1683,230.733 1682,229.869C1681.01,229.004 1679.84,228.371 1678.52,227.969C1677.19,227.566 1675.77,227.365 1674.25,227.365C1673.29,227.365 1672.47,227.395 1671.77,227.455C1671.07,227.514 1670.42,227.604 1669.82,227.723L1669.82,249.004C1670.54,249.183 1671.3,249.303 1672.12,249.362C1672.94,249.422 1673.79,249.452 1674.65,249.452C1678.17,249.452 1680.81,248.498 1682.59,246.59C1684.36,244.683 1685.25,241.851 1685.25,238.095ZM1688.96,238.095C1688.96,240.539 1688.62,242.663 1687.95,244.466C1687.28,246.27 1686.33,247.768 1685.09,248.96C1683.85,250.152 1682.36,251.039 1680.6,251.62C1678.84,252.201 1676.87,252.492 1674.69,252.492C1673.74,252.492 1672.67,252.455 1671.48,252.38C1670.28,252.306 1669.15,252.104 1668.08,251.776C1666.83,251.389 1666.2,250.703 1666.2,249.72L1666.2,226.739C1666.2,226.262 1666.32,225.897 1666.56,225.644C1666.8,225.39 1667.17,225.189 1667.67,225.04C1668.6,224.742 1669.64,224.548 1670.81,224.459C1671.97,224.37 1673.13,224.325 1674.29,224.325C1676.47,224.325 1678.46,224.615 1680.26,225.197C1682.06,225.778 1683.61,226.642 1684.89,227.79C1686.17,228.937 1687.17,230.368 1687.88,232.082C1688.6,233.796 1688.96,235.8 1688.96,238.095Z" style="fill:rgb(249,196,2);fill-rule:nonzero;stroke:black;stroke-width:1.05px;"/>
                <path d="M1711.4,251.911C1711.25,251.97 1711.03,252.037 1710.73,252.112C1710.43,252.186 1710.1,252.224 1709.75,252.224C1708.43,252.224 1707.78,251.672 1707.78,250.569L1707.78,224.906C1707.93,224.846 1708.16,224.779 1708.47,224.705C1708.79,224.63 1709.12,224.593 1709.48,224.593C1710.76,224.593 1711.4,225.145 1711.4,226.247L1711.4,251.911Z" style="fill:rgb(249,196,2);fill-rule:nonzero;stroke:black;stroke-width:1.05px;"/>
                <path d="M1756.2,238.408C1756.2,240.733 1755.87,242.782 1755.22,244.556C1754.56,246.329 1753.65,247.805 1752.49,248.982C1751.33,250.159 1749.95,251.054 1748.38,251.665C1746.8,252.276 1745.08,252.581 1743.23,252.581C1741.39,252.581 1739.67,252.276 1738.09,251.665C1736.51,251.054 1735.14,250.159 1733.98,248.982C1732.82,247.805 1731.91,246.329 1731.25,244.556C1730.6,242.782 1730.27,240.733 1730.27,238.408C1730.27,236.083 1730.6,234.042 1731.27,232.283C1731.94,230.525 1732.86,229.049 1734.02,227.857C1735.19,226.665 1736.56,225.763 1738.14,225.152C1739.72,224.541 1741.42,224.235 1743.23,224.235C1745.05,224.235 1746.75,224.541 1748.33,225.152C1749.91,225.763 1751.28,226.665 1752.44,227.857C1753.61,229.049 1754.52,230.525 1755.19,232.283C1755.86,234.042 1756.2,236.083 1756.2,238.408ZM1752.49,238.408C1752.49,234.832 1751.65,232.089 1749.96,230.182C1748.28,228.274 1746.04,227.32 1743.23,227.32C1741.83,227.32 1740.57,227.566 1739.43,228.058C1738.3,228.55 1737.33,229.265 1736.53,230.204C1735.72,231.143 1735.1,232.298 1734.67,233.669C1734.24,235.04 1734.02,236.62 1734.02,238.408C1734.02,241.985 1734.86,244.727 1736.53,246.635C1738.2,248.542 1740.43,249.496 1743.23,249.496C1746.07,249.496 1748.32,248.542 1749.99,246.635C1751.65,244.727 1752.49,241.985 1752.49,238.408Z" style="fill:rgb(249,196,2);fill-rule:nonzero;stroke:black;stroke-width:1.05px;"/>
            </g>
        </g>
    </g>
</svg>
