<?xml version="1.0" encoding="UTF-8" standalone="no"?>
<!DOCTYPE svg PUBLIC "-//W3C//DTD SVG 1.1//EN" "http://www.w3.org/Graphics/SVG/1.1/DTD/svg11.dtd">
<svg width="100%" height="100%" viewBox="0 0 642 121" version="1.1" xmlns="http://www.w3.org/2000/svg" xmlns:xlink="http://www.w3.org/1999/xlink" xml:space="preserve" xmlns:serif="http://www.serif.com/" style="fill-rule:evenodd;clip-rule:evenodd;stroke-linejoin:round;stroke-miterlimit:2;">
    <g transform="matrix(1,0,0,1,-316.24,-61.9992)">
        <g>
            <g>
                <g transform="matrix(0.414206,0,0,0.414206,0.367348,-396.159)">
                    <g transform="matrix(1.20983,0,0,1,-158.399,0)">
                        <text x="754.882px" y="1315.17px" style="font-family:'Baloo2-Regular', 'Baloo 2', cursive;font-size:98.354px;fill:rgb(55,122,184);stroke:black;stroke-width:2.18px;">r<tspan x="811.141px 885.594px 962.212px 1048.66px 1118.79px 1205.24px 1281.76px 1368.22px " y="1315.17px 1315.17px 1315.17px 1315.17px 1315.17px 1315.17px 1315.17px 1315.17px ">PROTOCOL</tspan></text>
                    </g>
                    <g transform="matrix(1.20983,0,0,1,-380.043,0)">
                        <g transform="matrix(98.3537,0,0,98.3537,2228.98,1315.17)">
                        </g>
                        <text x="1811.17px" y="1315.17px" style="font-family:'Baloo2-Regular', 'Baloo 2', cursive;font-size:98.354px;fill:rgb(249,196,2);stroke:rgb(15,100,0);stroke-width:2.18px;">S<tspan x="1881.3px 1951.42px 2033.94px 2116.76px 2161.21px " y="1315.17px 1315.17px 1315.17px 1315.17px 1315.17px ">TUDIO</tspan></text>
                    </g>
                </g>
                <g transform="matrix(2.0063,0,0,2.0063,-698.961,-123.076)">
                    <g transform="matrix(1.24354,0,0,1.24354,-151.09,-119.273)">
                        <path d="M682.653,170.284L683.234,174.329C684.746,174.679 686.19,175.277 687.507,176.099L690.778,173.649C692.175,174.69 693.414,175.928 694.454,177.326L692.005,180.596C692.826,181.914 693.424,183.357 693.775,184.87L697.82,185.45C698.072,187.174 698.072,188.926 697.82,190.65L693.775,191.23C693.424,192.742 692.826,194.186 692.005,195.503L694.454,198.774C693.414,200.172 692.175,201.41 690.778,202.451L687.507,200.001C686.19,200.822 684.746,201.421 683.234,201.771L682.653,205.816C680.929,206.069 679.178,206.069 677.454,205.816L676.873,201.771C675.361,201.421 673.917,200.822 672.6,200.001L669.329,202.451C667.932,201.41 666.693,200.172 665.652,198.774L668.102,195.503C667.281,194.186 666.683,192.742 666.332,191.23L662.287,190.65C662.035,188.926 662.035,187.174 662.287,185.45L666.332,184.87C666.683,183.357 667.281,181.914 668.102,180.596L665.652,177.326C666.693,175.928 667.932,174.69 669.329,173.649L672.6,176.099C673.917,175.277 675.361,174.679 676.873,174.329L677.454,170.284C679.178,170.031 680.929,170.031 682.653,170.284ZM680.053,181.344C683.755,181.344 686.76,184.349 686.76,188.05C686.76,191.751 683.755,194.756 680.053,194.756C676.352,194.756 673.347,191.751 673.347,188.05C673.347,184.349 676.352,181.344 680.053,181.344Z" style="fill:white;"/>
                    </g>
                    <path d="M677.38,118.684C677.811,122.966 682.396,127.851 683.554,132.478C683.993,134.234 684.591,136.231 684.591,137.806C684.591,140.671 685.868,142.512 688.733,142.512C691.599,142.512 698.382,142.523 701.122,142.523C702.566,142.523 704.595,140.613 704.595,138.185C704.595,136.333 704.962,133.639 705.877,131.598C707.787,127.339 711.644,121.57 711.809,118.684L694.888,125.714L677.38,118.684Z" style="fill:white;"/>
                    <g transform="matrix(1,0,0,1,-0.0790663,-0.286722)">
                        <path d="M688.813,144.512L700.518,144.512" style="fill:none;stroke:white;stroke-width:0.85px;stroke-linecap:round;stroke-miterlimit:1.5;"/>
                    </g>
                    <g transform="matrix(1,0,0,1,-0.0790663,2.02216)">
                        <path d="M688.813,144.512L700.518,144.512" style="fill:none;stroke:white;stroke-width:0.85px;stroke-linecap:round;stroke-miterlimit:1.5;"/>
                    </g>
                    <g transform="matrix(1,0,0,1,-0.0790663,4.30866)">
                        <path d="M688.813,144.512L700.518,144.512" style="fill:none;stroke:white;stroke-width:0.85px;stroke-linecap:round;stroke-miterlimit:1.5;"/>
                    </g>
                    <g transform="matrix(1,0,0,1,-0.0790663,5.78257)">
                        <path d="M688.813,144.512L700.518,144.512" style="fill:none;"/>
                    </g>
                    <path d="M701.122,150.295C701.122,150.295 700.236,152.364 698.249,152.364C696.602,152.364 691.98,152.346 690.828,152.346C689.676,152.346 688.481,151.394 688.047,150.295" style="fill:white;"/>
                </g>
            </g>
        </g>
    </g>
</svg>
